<svg id="Layer_1" data-name="Layer 1" xmlns="http://www.w3.org/2000/svg" viewBox="0 0 1480 600"><title>MRK-10011_LC What Is Multitenancy 191010 v1.3</title><path d="M917.8,222.7a4.69,4.69,0,0,1-3.5-1.5,5.55,5.55,0,0,1-.6-.8c-.2-.3-.3-.6-.5-.9l-.3-.9a6.05,6.05,0,0,1,0-1.9l.3-.9a4.05,4.05,0,0,1,.5-.9c.2-.3.4-.5.6-.8a5.07,5.07,0,0,1,5.5-1.1,4.05,4.05,0,0,1,.9.5,4.66,4.66,0,0,1,1.4,1.4c.2.3.3.6.5.9l.3.9a6.05,6.05,0,0,1,0,1.9l-.3.9a4.05,4.05,0,0,1-.5.9c-.2.3-.4.5-.6.8A5.48,5.48,0,0,1,917.8,222.7Z" style="fill:#aaa"/><path d="M999.5,287.2a5,5,0,0,1-.9-7h0a5,5,0,0,1,7-.9h0a5,5,0,0,1,.9,7h0a4.83,4.83,0,0,1-4,1.9h0A5.14,5.14,0,0,1,999.5,287.2Zm-17-13.1a5,5,0,0,1-.9-7h0a5,5,0,0,1,7-.9h0a5,5,0,0,1,.9,7h0a5,5,0,0,1-4,1.9h0a5.39,5.39,0,0,1-3-1ZM965.6,261a5,5,0,0,1-.9-7h0a5,5,0,0,1,7-.9h0a5,5,0,0,1,.9,7h0a4.83,4.83,0,0,1-4,1.9h0A4.53,4.53,0,0,1,965.6,261Zm-17-13.1a5,5,0,0,1-.9-7h0a5,5,0,0,1,7-.9h0a5,5,0,0,1,.9,7h0a4.83,4.83,0,0,1-4,1.9h0a5.39,5.39,0,0,1-3-1Zm-17-13.1a5,5,0,0,1-.9-7h0a5,5,0,0,1,7-.9h0a5,5,0,0,1,.9,7h0a4.83,4.83,0,0,1-4,1.9h0a5.66,5.66,0,0,1-3-1Z" style="fill:#aaa"/><path d="M1019.5,301.3a4.69,4.69,0,0,1-3.5-1.5,5.55,5.55,0,0,1-.6-.8c-.2-.3-.3-.6-.5-.9l-.3-.9a5,5,0,0,1,0-2l.3-.9a4.05,4.05,0,0,1,.5-.9,5,5,0,0,1,6.9-1.4c.3.2.5.4.8.6a5.55,5.55,0,0,1,.6.8c.2.3.3.6.5.9l.3.9a5.05,5.05,0,0,1,0,2l-.3.9a4.05,4.05,0,0,1-.5.9c-.2.3-.4.5-.6.8a5.55,5.55,0,0,1-.8.6c-.3.2-.6.3-.9.5l-.9.3A3.75,3.75,0,0,1,1019.5,301.3Z" style="fill:#aaa"/><path d="M1036.9,171a5,5,0,0,1-2.8-.9c-.3-.2-.5-.4-.8-.6a5.55,5.55,0,0,1-.6-.8c-.2-.3-.3-.6-.5-.9l-.3-.9a6.05,6.05,0,0,1,0-1.9l.3-.9a4.05,4.05,0,0,1,.5-.9,6.2,6.2,0,0,1,1.4-1.4c.3-.2.6-.3.9-.5l.9-.3a6.05,6.05,0,0,1,1.9,0l.9.3a4.05,4.05,0,0,1,.9.5c.3.2.5.4.8.6a5.09,5.09,0,0,1,1.5,3.5,3.4,3.4,0,0,1-.1,1l-.3.9a4.05,4.05,0,0,1-.5.9c-.2.3-.4.5-.6.8a5.55,5.55,0,0,1-.8.6c-.3.2-.6.3-.9.5l-.9.3A2.77,2.77,0,0,1,1036.9,171Z" style="fill:#aaa"/><path d="M1051.2,279.3a5.06,5.06,0,0,1,4.1-5.8h0a5.06,5.06,0,0,1,5.8,4.1h0a5.06,5.06,0,0,1-4.1,5.8h0a2.49,2.49,0,0,1-.8.1h0A5.15,5.15,0,0,1,1051.2,279.3Zm-3.2-18.8a5.06,5.06,0,0,1,4.1-5.8h0a5.06,5.06,0,0,1,5.8,4.1h0a5.06,5.06,0,0,1-4.1,5.8h0c-.3,0-.6.1-.9.1h0A5,5,0,0,1,1048,260.5Zm-3.2-18.7a5.06,5.06,0,0,1,4.1-5.8h0a5.06,5.06,0,0,1,5.8,4.1h0a5.06,5.06,0,0,1-4.1,5.8h0a2.49,2.49,0,0,1-.8.1h0a5.15,5.15,0,0,1-5-4.2Zm-3.2-18.7a5.06,5.06,0,0,1,4.1-5.8h0a5.06,5.06,0,0,1,5.8,4.1h0a5.06,5.06,0,0,1-4.1,5.8h0c-.3,0-.6.1-.8.1h0a5.15,5.15,0,0,1-5-4.2Zm-3.2-18.8a5.06,5.06,0,0,1,4.1-5.8h0a5.06,5.06,0,0,1,5.8,4.1h0a5.06,5.06,0,0,1-4.1,5.8h0c-.3,0-.6.1-.8.1h0a5.06,5.06,0,0,1-5-4.2Zm-3.3-18.7a5.06,5.06,0,0,1,4.1-5.8h0a5.06,5.06,0,0,1,5.8,4.1h0a5.06,5.06,0,0,1-4.1,5.8h0c-.3,0-.6.1-.8.1h0a5.24,5.24,0,0,1-5-4.2Z" style="fill:#aaa"/><path d="M1059.4,302.1a3.4,3.4,0,0,1-1-.1l-.9-.3a4.05,4.05,0,0,1-.9-.5c-.3-.2-.5-.4-.8-.6a5.55,5.55,0,0,1-.6-.8c-.2-.3-.3-.6-.5-.9l-.3-.9a6.7,6.7,0,0,1,0-2l.3-.9a4.05,4.05,0,0,1,.5-.9,6.2,6.2,0,0,1,1.4-1.4c.3-.2.6-.3.9-.5l.9-.3a4.78,4.78,0,0,1,2.9.3,4.05,4.05,0,0,1,.9.5c.3.2.5.4.8.6a5.55,5.55,0,0,1,.6.8c.2.3.3.6.5.9l.3.9a6.7,6.7,0,0,1,0,2l-.3.9a4.05,4.05,0,0,1-.5.9,6.2,6.2,0,0,1-1.4,1.4c-.3.2-.6.3-.9.5l-.9.3A1.8,1.8,0,0,1,1059.4,302.1Z" style="fill:#aaa"/><path d="M1176.3,171a4.69,4.69,0,0,1-3.5-1.5,5.55,5.55,0,0,1-.6-.8c-.2-.3-.3-.6-.5-.9l-.3-.9a6.05,6.05,0,0,1,0-1.9l.3-.9a4.05,4.05,0,0,1,.5-.9,4.89,4.89,0,0,1,6.1-1.8,4.05,4.05,0,0,1,.9.5,5,5,0,0,1,2.2,4.2,3.4,3.4,0,0,1-.1,1l-.3.9a4.05,4.05,0,0,1-.5.9c-.2.3-.4.5-.6.8a5.55,5.55,0,0,1-.8.6c-.3.2-.6.3-.9.5l-.9.3A3.08,3.08,0,0,0,1176.3,171Z" style="fill:#aaa"/><path d="M1156.2,283.3a5.14,5.14,0,0,1-4.1-5.8h0a5.14,5.14,0,0,1,5.8-4.1h0a5,5,0,0,1,4.1,5.8h0a5,5,0,0,1-4.9,4.2h0A2.77,2.77,0,0,1,1156.2,283.3Zm3.2-18.7a5.14,5.14,0,0,1-4.1-5.8h0a5,5,0,0,1,5.8-4.1h0a5.14,5.14,0,0,1,4.1,5.8h0a4.94,4.94,0,0,1-4.9,4.1h0a1.39,1.39,0,0,1-.9,0Zm3.2-18.7a5.14,5.14,0,0,1-4.1-5.8h0a5.14,5.14,0,0,1,5.8-4.1h0a5.14,5.14,0,0,1,4.1,5.8h0a5,5,0,0,1-4.9,4.2h0a2.77,2.77,0,0,0-.9-.1Zm3.2-18.8a5.14,5.14,0,0,1-4.1-5.8h0a5,5,0,0,1,5.8-4.1h0a5.14,5.14,0,0,1,4.1,5.8h0a4.94,4.94,0,0,1-4.9,4.1h0a1.39,1.39,0,0,1-.9,0Zm3.3-18.7a5,5,0,0,1-4.1-5.8h0a5.14,5.14,0,0,1,5.8-4.1h0a5,5,0,0,1,4.1,5.8h0a5,5,0,0,1-4.9,4.2h0a2.22,2.22,0,0,1-.9-.1Zm3.2-18.7a5.14,5.14,0,0,1-4.1-5.8h0a5,5,0,0,1,5.8-4.1h0a5.14,5.14,0,0,1,4.1,5.8h0a4.94,4.94,0,0,1-4.9,4.1h-.9Z" style="fill:#aaa"/><path d="M1153.8,302.1a3.4,3.4,0,0,1-1-.1l-.9-.3a4.05,4.05,0,0,1-.9-.5,6.2,6.2,0,0,1-1.4-1.4c-.2-.3-.3-.6-.5-.9l-.3-.9a6.7,6.7,0,0,1,0-2l.3-.9a4.05,4.05,0,0,1,.5-.9c.2-.3.4-.5.6-.8a5.55,5.55,0,0,1,.8-.6c.3-.2.6-.3.9-.5l.9-.3a5.06,5.06,0,0,1,4.5,1.4,5.55,5.55,0,0,1,.6.8c.2.3.3.6.5.9l.3.9a6.7,6.7,0,0,1,0,2l-.3.9a4.05,4.05,0,0,1-.5.9,4.46,4.46,0,0,1-4.1,2.3Z" style="fill:#aaa"/><path d="M1296.8,222.7a5.08,5.08,0,0,1-4.2-2.2c-.2-.3-.3-.6-.5-.9l-.3-.9a6.05,6.05,0,0,1,0-1.9l.3-.9a4.05,4.05,0,0,1,.5-.9,4.87,4.87,0,0,1,5.1-2.1l.9.3a4.05,4.05,0,0,1,.9.5c.3.2.5.4.8.6a5.55,5.55,0,0,1,.6.8c.2.3.3.6.5.9l.3.9a6.05,6.05,0,0,1,0,1.9l-.3.9a4.05,4.05,0,0,1-.5.9c-.2.3-.4.5-.6.8a5.55,5.55,0,0,1-.8.6c-.3.2-.6.3-.9.5l-.9.3A2.48,2.48,0,0,0,1296.8,222.7Z" style="fill:#aaa"/><path d="M1208.1,286.3a5,5,0,0,1,.9-7h0a5,5,0,0,1,7,.9h0a5,5,0,0,1-.9,7h0a4.3,4.3,0,0,1-3.1,1h0A5.08,5.08,0,0,1,1208.1,286.3Zm17-13.1a5,5,0,0,1,.9-7h0a5,5,0,0,1,7,.9h0a5,5,0,0,1-.9,7h0a5,5,0,0,1-3.1,1h0A4.93,4.93,0,0,1,1225.1,273.2Zm17-13.1a5,5,0,0,1,.9-7h0a5,5,0,0,1,7,.9h0a5,5,0,0,1-.9,7h0a5.39,5.39,0,0,1-3,1h0a5,5,0,0,1-4-1.9ZM1259,247a5,5,0,0,1,.9-7h0a5,5,0,0,1,7,.9h0a5,5,0,0,1-.9,7h0a5,5,0,0,1-3.1,1h0A5.08,5.08,0,0,1,1259,247Zm17-13.1a5,5,0,0,1,.9-7h0a5,5,0,0,1,7,.9h0a5,5,0,0,1-.9,7h0a5.39,5.39,0,0,1-3,1h0a5,5,0,0,1-4-1.9Z" style="fill:#aaa"/><path d="M1195.2,301.3a4.69,4.69,0,0,1-3.5-1.5,5.55,5.55,0,0,1-.6-.8c-.2-.3-.3-.6-.5-.9l-.3-.9a5.05,5.05,0,0,1,0-2l.3-.9a4.05,4.05,0,0,1,.5-.9,5,5,0,0,1,6.9-1.4,6.2,6.2,0,0,1,1.4,1.4c.2.3.3.6.5.9l.3.9a5.05,5.05,0,0,1,0,2l-.3.9a4.05,4.05,0,0,1-.5.9c-.2.3-.4.5-.6.8a5.55,5.55,0,0,1-.8.6c-.3.2-.6.3-.9.5l-.9.3A3.75,3.75,0,0,1,1195.2,301.3Z" style="fill:#aaa"/><path d="M371.4,228.9a3.4,3.4,0,0,1-1-.1l-.9-.3a4.05,4.05,0,0,1-.9-.5,6.2,6.2,0,0,1-1.4-1.4c-.2-.3-.3-.6-.5-.9l-.3-.9a5.05,5.05,0,0,1,0-2l.3-.9a4.05,4.05,0,0,1,.5-.9c.2-.3.4-.5.6-.8a5.55,5.55,0,0,1,.8-.6c.3-.2.6-.3.9-.5a5.11,5.11,0,0,1,5.5,1.1,5.55,5.55,0,0,1,.6.8c.2.3.3.6.5.9l.3.9a3.4,3.4,0,0,1,.1,1,5.19,5.19,0,0,1-5.1,5.1Z" style="fill:#aaa"/><path d="M366.4,278.8a5,5,0,0,1,5-5h0a5,5,0,0,1,5,5h0a5,5,0,0,1-5,5h0A5,5,0,0,1,366.4,278.8Zm0-18.3a5,5,0,0,1,5-5h0a5,5,0,0,1,5,5h0a5,5,0,0,1-5,5h0A5,5,0,0,1,366.4,260.5Zm0-18.3a5,5,0,0,1,5-5h0a5,5,0,0,1,5,5h0a5,5,0,0,1-5,5h0a5,5,0,0,1-5-5Z" style="fill:#aaa"/><path d="M371.4,302.1a3.4,3.4,0,0,1-1-.1l-.9-.3a4.05,4.05,0,0,1-.9-.5,6.2,6.2,0,0,1-1.4-1.4c-.2-.3-.3-.6-.5-.9l-.3-.9a6.7,6.7,0,0,1,0-2l.3-.9a4.05,4.05,0,0,1,.5-.9c.2-.3.4-.5.6-.8a5.55,5.55,0,0,1,.8-.6c.3-.2.6-.3.9-.5l.9-.3a6.69,6.69,0,0,1,2,0l.9.3a4.05,4.05,0,0,1,.9.5c.3.2.5.4.8.6a5.55,5.55,0,0,1,.6.8c.2.3.3.6.5.9l.3.9a6.7,6.7,0,0,1,0,2l-.3.9a4.05,4.05,0,0,1-.5.9,6.2,6.2,0,0,1-1.4,1.4c-.3.2-.6.3-.9.5l-.9.3A3.4,3.4,0,0,1,371.4,302.1Z" style="fill:#aaa"/><path d="M1275.6,317.5H931.3a12.08,12.08,0,0,0-12.1,12.1V447.4a12.08,12.08,0,0,0,12.1,12.1h344.3a12.08,12.08,0,0,0,12.1-12.1V329.6A12.21,12.21,0,0,0,1275.6,317.5Zm-1.8,128.2H933.1V331.4h340.8V445.7Zm-174.5-35V366.3a4.1,4.1,0,1,1,8.2-.4v44.8a4.05,4.05,0,0,1-4.3,3.9A4,4,0,0,1,1099.3,410.7Zm30.9,0V366.3a4.1,4.1,0,0,1,8.2-.4v44.8a4.05,4.05,0,0,1-4.3,3.9A4,4,0,0,1,1130.2,410.7Zm30.9,0V366.3a4.1,4.1,0,1,1,8.2-.4v44.8a4.05,4.05,0,0,1-4.3,3.9A4,4,0,0,1,1161.1,410.7Zm30.9,0V366.3a4.1,4.1,0,1,1,8.2-.4v44.8a4.05,4.05,0,0,1-4.3,3.9A4,4,0,0,1,1192,410.7Zm-216.3,0V366.3a4.1,4.1,0,1,1,8.2-.4v44.8a4.05,4.05,0,0,1-4.3,3.9A4,4,0,0,1,975.7,410.7Zm30.9,0V366.3a4.15,4.15,0,0,1,8.3,0v44.4a4.14,4.14,0,0,1-4.2,4.1A4,4,0,0,1,1006.6,410.7Zm30.9,0V366.3a4.2,4.2,0,0,1,8.4,0v44.4a4.2,4.2,0,0,1-8.4,0Zm30.9,0V366.3a4.1,4.1,0,1,1,8.2-.4v44.8a4.05,4.05,0,0,1-4.3,3.9A4,4,0,0,1,1068.4,410.7Zm154.6,0V366.3a4.1,4.1,0,1,1,8.2-.4v44.8a4.05,4.05,0,0,1-4.3,3.9A4,4,0,0,1,1223,410.7Zm9.1,68.3a6.91,6.91,0,0,1-6.9,6.9H981.7a6.9,6.9,0,0,1,0-13.8h243.4a6.94,6.94,0,0,1,7,6.9Z" style="fill:#404242"/><path d="M543.5,317.5H199.3a12.08,12.08,0,0,0-12.1,12.1V447.4a12.08,12.08,0,0,0,12.1,12.1H543.6a12.08,12.08,0,0,0,12.1-12.1V329.6A12.36,12.36,0,0,0,543.5,317.5Zm-1.7,128.2H201V331.4H541.8Zm-174.5-35V366.3a4.13,4.13,0,0,1,3.9-4.3,4.19,4.19,0,0,1,4.3,3.9v44.8a4.05,4.05,0,0,1-4.3,3.9A4,4,0,0,1,367.3,410.7Zm30.9,0V366.3a4.13,4.13,0,0,1,3.9-4.3,4.19,4.19,0,0,1,4.3,3.9v44.8a4.05,4.05,0,0,1-4.3,3.9A4,4,0,0,1,398.2,410.7Zm30.9,0V366.3A4.13,4.13,0,0,1,433,362a4.19,4.19,0,0,1,4.3,3.9v44.8a4.05,4.05,0,0,1-4.3,3.9A4,4,0,0,1,429.1,410.7Zm30.9,0V366.3a4.13,4.13,0,0,1,3.9-4.3,4.19,4.19,0,0,1,4.3,3.9v44.8a4.05,4.05,0,0,1-4.3,3.9A4,4,0,0,1,460,410.7Zm-216.4,0V366.3a4.1,4.1,0,0,1,8.2-.4v44.8a4.05,4.05,0,0,1-4.3,3.9A4,4,0,0,1,243.6,410.7Zm30.9,0V366.3a4.13,4.13,0,0,1,3.9-4.3,4.19,4.19,0,0,1,4.3,3.9v44.8a4.05,4.05,0,0,1-4.3,3.9A4,4,0,0,1,274.5,410.7Zm30.9,0V366.3a4.13,4.13,0,0,1,3.9-4.3,4.19,4.19,0,0,1,4.3,3.9v44.8a4.05,4.05,0,0,1-4.3,3.9A4,4,0,0,1,305.4,410.7Zm30.9,0V366.3a4.13,4.13,0,0,1,3.9-4.3,4.19,4.19,0,0,1,4.3,3.9v44.8a4.1,4.1,0,0,1-8.2,0Zm154.6,0V366.3a4.13,4.13,0,0,1,3.9-4.3,4.19,4.19,0,0,1,4.3,3.9v44.8a4.05,4.05,0,0,1-4.3,3.9A4,4,0,0,1,490.9,410.7ZM500,479a6.91,6.91,0,0,1-6.9,6.9H249.7a6.9,6.9,0,0,1,0-13.8H493.1A6.91,6.91,0,0,1,500,479Z" style="fill:#404242"/><path d="M336.5,116.6h69.8a11.14,11.14,0,0,1,11.1,11.1v69.8a11.14,11.14,0,0,1-11.1,11.1H336.5a11.14,11.14,0,0,1-11.1-11.1V127.7A11.07,11.07,0,0,1,336.5,116.6Z" style="fill:#67c1ce"/><path d="M879.5,113.7h69.8a11.14,11.14,0,0,1,11.1,11.1v69.8a11.14,11.14,0,0,1-11.1,11.1H879.5a11.14,11.14,0,0,1-11.1-11.1V124.8A11.14,11.14,0,0,1,879.5,113.7Z" style="fill:#67c1ce"/><path d="M1005.7,54.9h69.8A11.14,11.14,0,0,1,1086.6,66v69.8a11.14,11.14,0,0,1-11.1,11.1h-69.8a11.14,11.14,0,0,1-11.1-11.1V66A11.07,11.07,0,0,1,1005.7,54.9Z" style="fill:#4698cf"/><path d="M1139.2,54.9H1209A11.14,11.14,0,0,1,1220.1,66v69.8a11.14,11.14,0,0,1-11.1,11.1h-69.8a11.14,11.14,0,0,1-11.1-11.1V66A11.14,11.14,0,0,1,1139.2,54.9Z" style="fill:#404e88"/><path d="M1267.13,113.7h69.8a11.14,11.14,0,0,1,11.1,11.1v69.8a11.14,11.14,0,0,1-11.1,11.1h-69.8a11.14,11.14,0,0,1-11.1-11.1V124.8A11.07,11.07,0,0,1,1267.13,113.7Z" style="fill:#9b5ca3"/><path d="M1315.27,149.1h0a29.92,29.92,0,0,0-1.1-7.2l-4,1.2a21.76,21.76,0,0,0-2.5-5.6l3.6-2.2a25,25,0,0,0-4.6-5.6l-2.9,3.1a25.41,25.41,0,0,0-5-3.6l2-3.7a26.59,26.59,0,0,0-6.8-2.6l-1,4.1a25.39,25.39,0,0,0-6.1-.7l-.1-4.2h0a29.92,29.92,0,0,0-7.2,1.1l1.2,4a21.76,21.76,0,0,0-5.6,2.5l-2.19-3.6a31.4,31.4,0,0,0-5.7,4.5l3.1,2.9a25.41,25.41,0,0,0-3.6,5l-3.7-2a26.59,26.59,0,0,0-2.6,6.8l4.1,1a25.39,25.39,0,0,0-.7,6.1h0l-4.2.1a29.92,29.92,0,0,0,1.1,7.2l4-1.2a21.76,21.76,0,0,0,2.5,5.6l-3.6,2.2a25,25,0,0,0,4.6,5.6l2.9-3.1a25.41,25.41,0,0,0,5,3.6l-2,3.7a26.59,26.59,0,0,0,6.8,2.6l1-4.1a25.39,25.39,0,0,0,6.1.7h0l.1,4.2a29.92,29.92,0,0,0,7.2-1.1l-1.2-4.1a21.76,21.76,0,0,0,5.6-2.5l2.2,3.6a25,25,0,0,0,5.6-4.6l-3-2.9a25.41,25.41,0,0,0,3.6-5l3.7,2a27,27,0,0,0,2.6-6.8l-4.1-1a25.38,25.38,0,0,0,.69-6.1Zm-12.7,4.4a13.68,13.68,0,0,1-1.5,3.8,19.36,19.36,0,0,1-2.4,3.3,15.92,15.92,0,0,1-6.9,4.2,13.36,13.36,0,0,1-4,.6h0a18.1,18.1,0,0,1-4-.4,13.68,13.68,0,0,1-3.8-1.5,15.52,15.52,0,0,1-7.5-9.3,13.36,13.36,0,0,1-.6-4h0a18.1,18.1,0,0,1,.4-4,13.68,13.68,0,0,1,1.5-3.8,12.66,12.66,0,0,1,2.4-3.3,13.13,13.13,0,0,1,3.2-2.5,16.08,16.08,0,0,1,7.7-2.3h0a18.1,18.1,0,0,1,4,.4,13.68,13.68,0,0,1,3.8,1.5,15.43,15.43,0,0,1,8.1,13.2h0A18.4,18.4,0,0,1,1302.57,153.5Zm41.2,20.7h0a17,17,0,0,0-1.8-4.4l-2.4,1.4a13.13,13.13,0,0,0-2.5-3.2l2-2a18.19,18.19,0,0,0-3.8-2.9l-1.4,2.4a18,18,0,0,0-3.8-1.6l.7-2.7a19.73,19.73,0,0,0-4.8-.6v2.8a17.52,17.52,0,0,0-4,.5l-.7-2.7h0a17,17,0,0,0-4.4,1.8l1.4,2.4a13.13,13.13,0,0,0-3.2,2.5l-2-2a18.19,18.19,0,0,0-2.9,3.8l2.4,1.4a16.07,16.07,0,0,0-1.6,3.8l-2.7-.7a19.73,19.73,0,0,0-.6,4.8h2.8a17.52,17.52,0,0,0,.5,4h0l-2.7.7a17,17,0,0,0,1.8,4.4l2.41-1.4a12.89,12.89,0,0,0,2.5,3.2l-2,2a17.93,17.93,0,0,0,3.8,2.9l1.4-2.4a16.07,16.07,0,0,0,3.8,1.6l-.7,2.7a19.73,19.73,0,0,0,4.8.6v-2.8a17.52,17.52,0,0,0,4-.5h0l.7,2.7a17,17,0,0,0,4.4-1.8l-1.4-2.4a13.13,13.13,0,0,0,3.2-2.5l2,2a18.19,18.19,0,0,0,2.9-3.8l-2.4-1.4a18,18,0,0,0,1.6-3.8l2.7.7a19.73,19.73,0,0,0,.6-4.8h-2.81a17,17,0,0,0-.5-4Zm-7.5,4.8a10.64,10.64,0,0,1-3,7.3,8.34,8.34,0,0,1-2.1,1.6,10.89,10.89,0,0,1-2.5,1h0a12.39,12.39,0,0,1-2.69.3,8.34,8.34,0,0,1-2.7-.4,10.89,10.89,0,0,1-2.5-1,11.6,11.6,0,0,1-2.1-1.6,10.62,10.62,0,0,1-1.6-2.1,10.89,10.89,0,0,1-1-2.5h0a8.31,8.31,0,0,1-.3-2.7,8.42,8.42,0,0,1,.4-2.7,10.89,10.89,0,0,1,1-2.5,8.34,8.34,0,0,1,1.6-2.1,10.79,10.79,0,0,1,4.6-2.7h0a12.59,12.59,0,0,1,2.69-.4,8.34,8.34,0,0,1,2.7.4,10.89,10.89,0,0,1,2.5,1,8.34,8.34,0,0,1,2.1,1.6,10.62,10.62,0,0,1,1.6,2.1,10.89,10.89,0,0,1,1,2.5h0a15.87,15.87,0,0,1,.3,2.9Z" style="fill:#fff"/><path d="M1188.23,90.3h0a29.92,29.92,0,0,0-1.1-7.2l-4,1.2a21.76,21.76,0,0,0-2.5-5.6l3.6-2.2a25,25,0,0,0-4.6-5.6l-2.9,3.1a25.41,25.41,0,0,0-5-3.6l2-3.7a26.59,26.59,0,0,0-6.8-2.6l-1,4.1a25.39,25.39,0,0,0-6.1-.7l-.1-4.2h0a29.92,29.92,0,0,0-7.2,1.1l1.2,4a21.76,21.76,0,0,0-5.6,2.5l-2.2-3.6a31.4,31.4,0,0,0-5.7,4.5l3.1,2.9a25.41,25.41,0,0,0-3.6,5l-3.7-2a26.59,26.59,0,0,0-2.6,6.8l4.1,1a25.39,25.39,0,0,0-.7,6.1h0l-4.2.1a29.92,29.92,0,0,0,1.1,7.2l4-1.2a21.76,21.76,0,0,0,2.5,5.6l-3.6,2.2a25,25,0,0,0,4.6,5.6l2.9-3.1a25.41,25.41,0,0,0,5,3.6l-2,3.7a26.59,26.59,0,0,0,6.8,2.6l1-4.1a25.39,25.39,0,0,0,6.1.7h0l.1,4.2a29.92,29.92,0,0,0,7.2-1.1l-1.2-4.1a21.76,21.76,0,0,0,5.6-2.5l2.2,3.6a25,25,0,0,0,5.6-4.6l-3-2.9a25.41,25.41,0,0,0,3.6-5l3.7,2a26.59,26.59,0,0,0,2.6-6.8l-4.1-1a25.39,25.39,0,0,0,.7-6.1Zm-12.7,4.4a13.68,13.68,0,0,1-1.5,3.8,19.92,19.92,0,0,1-2.4,3.3,15.92,15.92,0,0,1-6.9,4.2,13.36,13.36,0,0,1-4,.6h0a18.1,18.1,0,0,1-4-.4,13.68,13.68,0,0,1-3.8-1.5,15.52,15.52,0,0,1-7.5-9.3,13.36,13.36,0,0,1-.6-4h0a18.1,18.1,0,0,1,.4-4,13.68,13.68,0,0,1,1.5-3.8,12.66,12.66,0,0,1,2.4-3.3,13.13,13.13,0,0,1,3.2-2.5,16.08,16.08,0,0,1,7.7-2.3h0a18.1,18.1,0,0,1,4,.4,13.68,13.68,0,0,1,3.8,1.5,15.43,15.43,0,0,1,8.1,13.2h0A18.4,18.4,0,0,1,1175.53,94.7Zm41.2,20.7h0a17,17,0,0,0-1.8-4.4l-2.4,1.4a13.13,13.13,0,0,0-2.5-3.2l2-2a18.19,18.19,0,0,0-3.8-2.9l-1.4,2.4a18,18,0,0,0-3.8-1.6l.7-2.7a19.73,19.73,0,0,0-4.8-.6v2.8a17.52,17.52,0,0,0-4,.5l-.7-2.7h0a17,17,0,0,0-4.4,1.8l1.4,2.4a13.13,13.13,0,0,0-3.2,2.5l-2-2a18.19,18.19,0,0,0-2.9,3.8l2.4,1.4a16.07,16.07,0,0,0-1.6,3.8l-2.7-.7a19.73,19.73,0,0,0-.6,4.8h2.8a17.52,17.52,0,0,0,.5,4h0l-2.7.7a17,17,0,0,0,1.8,4.4l2.4-1.4a13.13,13.13,0,0,0,2.5,3.2l-2,2a18.19,18.19,0,0,0,3.8,2.9l1.4-2.4a16.07,16.07,0,0,0,3.8,1.6l-.7,2.7a19.73,19.73,0,0,0,4.8.6v-2.8a17.52,17.52,0,0,0,4-.5h0l.7,2.7a17,17,0,0,0,4.4-1.8l-1.4-2.4a13.13,13.13,0,0,0,3.2-2.5l2,2a18.19,18.19,0,0,0,2.9-3.8l-2.4-1.4a18,18,0,0,0,1.6-3.8l2.7.7a19.73,19.73,0,0,0,.6-4.8h-2.8a17.52,17.52,0,0,0-.5-4Zm-7.5,4.8a10.64,10.64,0,0,1-3,7.3,8.34,8.34,0,0,1-2.1,1.6,10.89,10.89,0,0,1-2.5,1h0a12.41,12.41,0,0,1-2.7.3,8.42,8.42,0,0,1-2.7-.4,10.89,10.89,0,0,1-2.5-1,11.6,11.6,0,0,1-2.1-1.6,10.62,10.62,0,0,1-1.6-2.1,10.89,10.89,0,0,1-1-2.5h0a8.31,8.31,0,0,1-.3-2.7,8.42,8.42,0,0,1,.4-2.7,10.89,10.89,0,0,1,1-2.5,8.34,8.34,0,0,1,1.6-2.1,10.79,10.79,0,0,1,4.6-2.7h0a12.59,12.59,0,0,1,2.7-.4,8.42,8.42,0,0,1,2.7.4,10.89,10.89,0,0,1,2.5,1,8.34,8.34,0,0,1,2.1,1.6,10.62,10.62,0,0,1,1.6,2.1,10.89,10.89,0,0,1,1,2.5h0a15.87,15.87,0,0,1,.3,2.9Z" style="fill:#fff"/><path d="M1053.85,90.3h0a29.92,29.92,0,0,0-1.1-7.2l-4,1.2a21.76,21.76,0,0,0-2.5-5.6l3.6-2.2a25,25,0,0,0-4.6-5.6l-2.9,3.1a25.41,25.41,0,0,0-5-3.6l2-3.7a26.59,26.59,0,0,0-6.8-2.6l-1,4.1a25.39,25.39,0,0,0-6.1-.7l-.1-4.2h0a29.92,29.92,0,0,0-7.2,1.1l1.2,4a21.76,21.76,0,0,0-5.6,2.5l-2.2-3.6a31.4,31.4,0,0,0-5.7,4.5l3.1,2.9a25.41,25.41,0,0,0-3.6,5l-3.7-2a26.59,26.59,0,0,0-2.6,6.8l4.1,1a25.39,25.39,0,0,0-.7,6.1h0l-4.2.1a29.92,29.92,0,0,0,1.1,7.2l4-1.2a21.76,21.76,0,0,0,2.5,5.6l-3.6,2.2a25,25,0,0,0,4.6,5.6l2.9-3.1a25.41,25.41,0,0,0,5,3.6l-2,3.7a26.59,26.59,0,0,0,6.8,2.6l1-4.1a25.39,25.39,0,0,0,6.1.7h0l.1,4.2a29.92,29.92,0,0,0,7.2-1.1l-1.2-4.1a21.76,21.76,0,0,0,5.6-2.5l2.2,3.6a25,25,0,0,0,5.6-4.6l-3-2.9a25.41,25.41,0,0,0,3.6-5l3.7,2a26.59,26.59,0,0,0,2.6-6.8l-4.1-1a25.39,25.39,0,0,0,.7-6.1Zm-12.7,4.4a13.68,13.68,0,0,1-1.5,3.8,19.92,19.92,0,0,1-2.4,3.3,15.92,15.92,0,0,1-6.9,4.2,13.36,13.36,0,0,1-4,.6h0a18.1,18.1,0,0,1-4-.4,13.68,13.68,0,0,1-3.8-1.5,15.52,15.52,0,0,1-7.5-9.3,13.36,13.36,0,0,1-.6-4h0a18.1,18.1,0,0,1,.4-4,13.68,13.68,0,0,1,1.5-3.8,12.66,12.66,0,0,1,2.4-3.3,13.13,13.13,0,0,1,3.2-2.5,16.08,16.08,0,0,1,7.7-2.3h0a18.1,18.1,0,0,1,4,.4,13.68,13.68,0,0,1,3.8,1.5,15.43,15.43,0,0,1,8.1,13.2h0A18.4,18.4,0,0,1,1041.15,94.7Zm41.2,20.7h0a17,17,0,0,0-1.8-4.4l-2.4,1.4a13.13,13.13,0,0,0-2.5-3.2l2-2a18.19,18.19,0,0,0-3.8-2.9l-1.4,2.4a18,18,0,0,0-3.8-1.6l.7-2.7a19.73,19.73,0,0,0-4.8-.6v2.8a17.52,17.52,0,0,0-4,.5l-.7-2.7h0a17,17,0,0,0-4.4,1.8l1.4,2.4a13.13,13.13,0,0,0-3.2,2.5l-2-2a18.19,18.19,0,0,0-2.9,3.8l2.4,1.4a16.07,16.07,0,0,0-1.6,3.8l-2.7-.7a19.73,19.73,0,0,0-.6,4.8h2.8a17.52,17.52,0,0,0,.5,4h0l-2.7.7a17,17,0,0,0,1.8,4.4l2.4-1.4a13.13,13.13,0,0,0,2.5,3.2l-2,2a18.19,18.19,0,0,0,3.8,2.9l1.4-2.4a16.07,16.07,0,0,0,3.8,1.6l-.7,2.7a19.73,19.73,0,0,0,4.8.6v-2.8a17.52,17.52,0,0,0,4-.5h0l.7,2.7a17,17,0,0,0,4.4-1.8l-1.4-2.4a13.13,13.13,0,0,0,3.2-2.5l2,2a18.19,18.19,0,0,0,2.9-3.8l-2.4-1.4a18,18,0,0,0,1.6-3.8l2.7.7a19.73,19.73,0,0,0,.6-4.8h-2.8a17.52,17.52,0,0,0-.5-4Zm-7.5,4.8a10.64,10.64,0,0,1-3,7.3,8.34,8.34,0,0,1-2.1,1.6,10.89,10.89,0,0,1-2.5,1h0a12.41,12.41,0,0,1-2.7.3,8.42,8.42,0,0,1-2.7-.4,10.89,10.89,0,0,1-2.5-1,11.6,11.6,0,0,1-2.1-1.6,10.62,10.62,0,0,1-1.6-2.1,10.89,10.89,0,0,1-1-2.5h0a8.31,8.31,0,0,1-.3-2.7,8.42,8.42,0,0,1,.4-2.7,10.89,10.89,0,0,1,1-2.5,8.34,8.34,0,0,1,1.6-2.1,10.79,10.79,0,0,1,4.6-2.7h0a12.59,12.59,0,0,1,2.7-.4,8.42,8.42,0,0,1,2.7.4,10.89,10.89,0,0,1,2.5,1,8.34,8.34,0,0,1,2.1,1.6,10.62,10.62,0,0,1,1.6,2.1,10.89,10.89,0,0,1,1,2.5h0a15.87,15.87,0,0,1,.3,2.9Z" style="fill:#fff"/><path d="M927.65,149.1h0a29.92,29.92,0,0,0-1.1-7.2l-4,1.2a21.76,21.76,0,0,0-2.5-5.6l3.6-2.2a25,25,0,0,0-4.6-5.6l-2.9,3.1a25.41,25.41,0,0,0-5-3.6l2-3.7a26.59,26.59,0,0,0-6.8-2.6l-1,4.1a25.39,25.39,0,0,0-6.1-.7l-.1-4.2h0a29.92,29.92,0,0,0-7.2,1.1l1.2,4a21.76,21.76,0,0,0-5.6,2.5l-2.2-3.6a31.4,31.4,0,0,0-5.7,4.5l3.1,2.9a25.41,25.41,0,0,0-3.6,5l-3.7-2a26.59,26.59,0,0,0-2.6,6.8l4.1,1a25.39,25.39,0,0,0-.7,6.1h0l-4.2.1a29.92,29.92,0,0,0,1.1,7.2l4-1.2a21.76,21.76,0,0,0,2.5,5.6l-3.6,2.2a25,25,0,0,0,4.6,5.6l2.9-3.1a25.41,25.41,0,0,0,5,3.6l-2,3.7a26.59,26.59,0,0,0,6.8,2.6l1-4.1a25.39,25.39,0,0,0,6.1.7h0l.1,4.2a29.92,29.92,0,0,0,7.2-1.1l-1.2-4.1a21.76,21.76,0,0,0,5.6-2.5l2.2,3.6a25,25,0,0,0,5.6-4.6l-3-2.9a25.41,25.41,0,0,0,3.6-5l3.7,2a26.59,26.59,0,0,0,2.6-6.8l-4.1-1a25.39,25.39,0,0,0,.7-6.1ZM915,153.5a13.68,13.68,0,0,1-1.5,3.8,19.92,19.92,0,0,1-2.4,3.3,15.92,15.92,0,0,1-6.9,4.2,13.36,13.36,0,0,1-4,.6h0a18.1,18.1,0,0,1-4-.4,13.68,13.68,0,0,1-3.8-1.5,15.52,15.52,0,0,1-7.5-9.3,13.36,13.36,0,0,1-.6-4h0a18.1,18.1,0,0,1,.4-4,13.68,13.68,0,0,1,1.5-3.8,12.66,12.66,0,0,1,2.4-3.3,13.13,13.13,0,0,1,3.2-2.5,16.08,16.08,0,0,1,7.7-2.3h0a18.1,18.1,0,0,1,4,.4,13.68,13.68,0,0,1,3.8,1.5,15.43,15.43,0,0,1,8.1,13.2h0A18.4,18.4,0,0,1,915,153.5Zm41.2,20.7h0a17,17,0,0,0-1.8-4.4l-2.4,1.4a13.13,13.13,0,0,0-2.5-3.2l2-2a18.19,18.19,0,0,0-3.8-2.9l-1.4,2.4a18,18,0,0,0-3.8-1.6l.7-2.7a19.73,19.73,0,0,0-4.8-.6v2.8a17.52,17.52,0,0,0-4,.5l-.7-2.7h0a17,17,0,0,0-4.4,1.8l1.4,2.4a13.13,13.13,0,0,0-3.2,2.5l-2-2a18.19,18.19,0,0,0-2.9,3.8l2.4,1.4a16.07,16.07,0,0,0-1.6,3.8l-2.7-.7a19.73,19.73,0,0,0-.6,4.8h2.8a17.52,17.52,0,0,0,.5,4h0l-2.7.7a17,17,0,0,0,1.8,4.4l2.4-1.4a13.13,13.13,0,0,0,2.5,3.2l-2,2a18.19,18.19,0,0,0,3.8,2.9l1.4-2.4a16.07,16.07,0,0,0,3.8,1.6l-.7,2.7a19.73,19.73,0,0,0,4.8.6v-2.8a17.52,17.52,0,0,0,4-.5h0l.7,2.7a17,17,0,0,0,4.4-1.8l-1.4-2.4a13.13,13.13,0,0,0,3.2-2.5l2,2a18.19,18.19,0,0,0,2.9-3.8l-2.4-1.4a18,18,0,0,0,1.6-3.8l2.7.7a19.73,19.73,0,0,0,.6-4.8H954a17.52,17.52,0,0,0-.5-4Zm-7.5,4.8a10.64,10.64,0,0,1-3,7.3,8.34,8.34,0,0,1-2.1,1.6,10.89,10.89,0,0,1-2.5,1h0a12.41,12.41,0,0,1-2.7.3,8.42,8.42,0,0,1-2.7-.4,10.89,10.89,0,0,1-2.5-1,11.6,11.6,0,0,1-2.1-1.6,10.62,10.62,0,0,1-1.6-2.1,10.89,10.89,0,0,1-1-2.5h0a8.31,8.31,0,0,1-.3-2.7,8.42,8.42,0,0,1,.4-2.7,10.89,10.89,0,0,1,1-2.5,8.34,8.34,0,0,1,1.6-2.1,10.79,10.79,0,0,1,4.6-2.7h0a12.59,12.59,0,0,1,2.7-.4,8.42,8.42,0,0,1,2.7.4,10.89,10.89,0,0,1,2.5,1,8.34,8.34,0,0,1,2.1,1.6,10.62,10.62,0,0,1,1.6,2.1,10.89,10.89,0,0,1,1,2.5h0a15.87,15.87,0,0,1,.3,2.9Z" style="fill:#fff"/><path d="M384.65,152h0a29.92,29.92,0,0,0-1.1-7.2l-4,1.2a21.76,21.76,0,0,0-2.5-5.6l3.6-2.2a25,25,0,0,0-4.6-5.6l-2.9,3.1a25.41,25.41,0,0,0-5-3.6l2-3.7a26.59,26.59,0,0,0-6.8-2.6l-1,4.1a25.39,25.39,0,0,0-6.1-.7l-.1-4.2h0a29.92,29.92,0,0,0-7.2,1.1l1.2,4a21.76,21.76,0,0,0-5.6,2.5l-2.2-3.6a31.4,31.4,0,0,0-5.7,4.5l3.1,2.9a25.41,25.41,0,0,0-3.6,5l-3.7-2a26.59,26.59,0,0,0-2.6,6.8l4.1,1a25.39,25.39,0,0,0-.7,6.1h0l-4.2.1a29.92,29.92,0,0,0,1.1,7.2l4-1.2a21.76,21.76,0,0,0,2.5,5.6l-3.6,2.2a25,25,0,0,0,4.6,5.6l2.9-3.1a25.41,25.41,0,0,0,5,3.6l-2,3.7a26.59,26.59,0,0,0,6.8,2.6l1-4.1a25.39,25.39,0,0,0,6.1.7h0l.1,4.2a29.92,29.92,0,0,0,7.2-1.1l-1.2-4.1a21.76,21.76,0,0,0,5.6-2.5l2.2,3.6a25,25,0,0,0,5.6-4.6l-3-2.9a25.41,25.41,0,0,0,3.6-5l3.7,2a26.59,26.59,0,0,0,2.6-6.8l-4.1-1a25.39,25.39,0,0,0,.7-6.1ZM372,156.4a13.68,13.68,0,0,1-1.5,3.8,19.92,19.92,0,0,1-2.4,3.3,15.92,15.92,0,0,1-6.9,4.2,13.36,13.36,0,0,1-4,.6h0a18.1,18.1,0,0,1-4-.4,13.68,13.68,0,0,1-3.8-1.5,15.52,15.52,0,0,1-7.5-9.3,13.36,13.36,0,0,1-.6-4h0a18.1,18.1,0,0,1,.4-4,13.68,13.68,0,0,1,1.5-3.8,12.66,12.66,0,0,1,2.4-3.3,13.13,13.13,0,0,1,3.2-2.5,16.08,16.08,0,0,1,7.7-2.3h0a18.1,18.1,0,0,1,4,.4,13.68,13.68,0,0,1,3.8,1.5,15.43,15.43,0,0,1,8.1,13.2h0A18.4,18.4,0,0,1,372,156.4Zm41.2,20.7h0a17,17,0,0,0-1.8-4.4l-2.4,1.4a13.13,13.13,0,0,0-2.5-3.2l2-2a18.19,18.19,0,0,0-3.8-2.9l-1.4,2.4a18,18,0,0,0-3.8-1.6l.7-2.7a19.73,19.73,0,0,0-4.8-.6v2.8a17.52,17.52,0,0,0-4,.5l-.7-2.7h0a17,17,0,0,0-4.4,1.8l1.4,2.4a13.13,13.13,0,0,0-3.2,2.5l-2-2a18.19,18.19,0,0,0-2.9,3.8L382,174a16.07,16.07,0,0,0-1.6,3.8l-2.7-.7a19.73,19.73,0,0,0-.6,4.8h2.8a17.52,17.52,0,0,0,.5,4h0l-2.7.7a17,17,0,0,0,1.8,4.4l2.4-1.4a13.13,13.13,0,0,0,2.5,3.2l-2,2a18.19,18.19,0,0,0,3.8,2.9l1.4-2.4a16.07,16.07,0,0,0,3.8,1.6l-.7,2.7a19.73,19.73,0,0,0,4.8.6v-2.8a17.52,17.52,0,0,0,4-.5h0l.7,2.7a17,17,0,0,0,4.4-1.8l-1.4-2.4a13.13,13.13,0,0,0,3.2-2.5l2,2a18.19,18.19,0,0,0,2.9-3.8l-2.4-1.4a18,18,0,0,0,1.6-3.8l2.7.7a19.73,19.73,0,0,0,.6-4.8H411a17.52,17.52,0,0,0-.5-4Zm-7.5,4.8a10.64,10.64,0,0,1-3,7.3,8.34,8.34,0,0,1-2.1,1.6,10.89,10.89,0,0,1-2.5,1h0a12.41,12.41,0,0,1-2.7.3,8.42,8.42,0,0,1-2.7-.4,10.89,10.89,0,0,1-2.5-1,11.6,11.6,0,0,1-2.1-1.6,10.62,10.62,0,0,1-1.6-2.1,10.89,10.89,0,0,1-1-2.5h0a8.31,8.31,0,0,1-.3-2.7,8.42,8.42,0,0,1,.4-2.7,10.89,10.89,0,0,1,1-2.5,8.34,8.34,0,0,1,1.6-2.1,10.79,10.79,0,0,1,4.6-2.7h0a12.59,12.59,0,0,1,2.7-.4,8.42,8.42,0,0,1,2.7.4,10.89,10.89,0,0,1,2.5,1,8.34,8.34,0,0,1,2.1,1.6,10.62,10.62,0,0,1,1.6,2.1,10.89,10.89,0,0,1,1,2.5h0a15.87,15.87,0,0,1,.3,2.9Z" style="fill:#fff"/><path d="M282.9,536.7a5.65,5.65,0,0,1-2.2,4.8,8.9,8.9,0,0,1-6.1,1.7,14.3,14.3,0,0,1-6.4-1.2v-3.5a21.9,21.9,0,0,0,3.3,1.2,12.42,12.42,0,0,0,3.3.4,5.42,5.42,0,0,0,3.3-.8,2.84,2.84,0,0,0,1.1-2.3,3.21,3.21,0,0,0-1-2.2,15.3,15.3,0,0,0-4-2.1,10.93,10.93,0,0,1-4.4-2.9,6.12,6.12,0,0,1-1.3-3.9,5.59,5.59,0,0,1,2-4.5,8.3,8.3,0,0,1,5.5-1.6,15.8,15.8,0,0,1,6.5,1.4l-1.2,3a14.74,14.74,0,0,0-5.4-1.3,4,4,0,0,0-2.8.8,2.43,2.43,0,0,0-.9,2.1,2.6,2.6,0,0,0,.4,1.5,3.45,3.45,0,0,0,1.2,1.2,17.72,17.72,0,0,0,3.1,1.5,19,19,0,0,1,3.7,2,5.51,5.51,0,0,1,1.7,2A6.6,6.6,0,0,1,282.9,536.7Z" style="fill:#404242"/><path d="M286.7,521a2.46,2.46,0,0,1,.5-1.5,1.74,1.74,0,0,1,1.5-.5,2.46,2.46,0,0,1,1.5.5,1.74,1.74,0,0,1,.5,1.5,2.69,2.69,0,0,1-.5,1.5,1.74,1.74,0,0,1-1.5.5,1.77,1.77,0,0,1-2-2Zm3.9,21.9h-3.7V525.6h3.7Z" style="fill:#404242"/><path d="M311.1,542.9h-3.7V532.3a4.55,4.55,0,0,0-.8-3,3,3,0,0,0-2.5-1,4,4,0,0,0-3.4,1.4,7.76,7.76,0,0,0-1.1,4.6v8.6h-3.7V525.6h2.9l.5,2.3h.2a5.1,5.1,0,0,1,2.2-1.9,7.11,7.11,0,0,1,3.2-.7c4.1,0,6.2,2.1,6.2,6.3Z" style="fill:#404242"/><path d="M330.8,525.6v2l-3,.5a8.26,8.26,0,0,1,.7,1.3,4.67,4.67,0,0,1,.3,1.7,5.13,5.13,0,0,1-1.8,4.2,7.85,7.85,0,0,1-5.1,1.5,7.57,7.57,0,0,1-1.5-.1,2.14,2.14,0,0,0-1.2,1.7,1,1,0,0,0,.6.9,6.45,6.45,0,0,0,2,.3h3a6.92,6.92,0,0,1,4.4,1.3,4.35,4.35,0,0,1,1.5,3.5,5.07,5.07,0,0,1-2.4,4.5c-1.6,1.1-4,1.6-7,1.6a10,10,0,0,1-5.4-1.2,4.24,4.24,0,0,1-1.9-3.6,3.78,3.78,0,0,1,1-2.7,5.14,5.14,0,0,1,2.8-1.5,2.94,2.94,0,0,1-1.2-1,2.46,2.46,0,0,1-.5-1.5,2.77,2.77,0,0,1,.5-1.6,6.53,6.53,0,0,1,1.6-1.3,5.1,5.1,0,0,1-2.2-1.9,6.2,6.2,0,0,1,.9-7.4,6.93,6.93,0,0,1,5-1.5,7.57,7.57,0,0,1,1.5.1,5,5,0,0,1,1.2.2Zm-13.6,20a1.89,1.89,0,0,0,1.1,1.8,5.25,5.25,0,0,0,3,.6,8.88,8.88,0,0,0,4.5-.9,2.53,2.53,0,0,0,1.5-2.3,1.72,1.72,0,0,0-.8-1.6,6.15,6.15,0,0,0-3-.5h-2.8a3.75,3.75,0,0,0-2.5.8,2.64,2.64,0,0,0-1,2.1Zm1.6-14.4a3.29,3.29,0,0,0,.8,2.5,3.41,3.41,0,0,0,2.4.9c2.1,0,3.2-1.1,3.2-3.4a3.53,3.53,0,0,0-.8-2.6,2.72,2.72,0,0,0-2.4-.9,3,3,0,0,0-2.4.9,3.53,3.53,0,0,0-.8,2.6Z" style="fill:#404242"/><path d="M337.6,542.9H334V518.6h3.7v24.3Z" style="fill:#404242"/><path d="M350.4,543.2a8.66,8.66,0,0,1-6.3-2.3,9.13,9.13,0,0,1-2.3-6.5,10.12,10.12,0,0,1,2.1-6.7,7.49,7.49,0,0,1,5.8-2.4,7.23,7.23,0,0,1,5.4,2.1,8,8,0,0,1,2,5.7v2H345.6A5.68,5.68,0,0,0,347,539a4.88,4.88,0,0,0,3.6,1.3,14.28,14.28,0,0,0,2.9-.3,13.32,13.32,0,0,0,2.8-1v3a14.26,14.26,0,0,1-2.7.9A17.33,17.33,0,0,1,350.4,543.2Zm-.6-15.1a3.93,3.93,0,0,0-2.8,1.1,4.72,4.72,0,0,0-1.2,3.2h7.8a4.55,4.55,0,0,0-1-3.2,3.48,3.48,0,0,0-2.8-1.1Z" style="fill:#404242"/><path d="M377.9,542.9h-3.7V523.3h-6.7v-3.2h17.2v3.2H378v19.6Z" style="fill:#404242"/><path d="M395.3,543.2a8.66,8.66,0,0,1-6.3-2.3,9.13,9.13,0,0,1-2.3-6.5,10.12,10.12,0,0,1,2.1-6.7,7.49,7.49,0,0,1,5.8-2.4,7.23,7.23,0,0,1,5.4,2.1,8,8,0,0,1,2,5.7v2H390.5a5.68,5.68,0,0,0,1.4,3.9,4.88,4.88,0,0,0,3.6,1.3,14.28,14.28,0,0,0,2.9-.3,13.32,13.32,0,0,0,2.8-1v3a14.26,14.26,0,0,1-2.7.9A17.33,17.33,0,0,1,395.3,543.2Zm-.7-15.1a3.93,3.93,0,0,0-2.8,1.1,4.72,4.72,0,0,0-1.2,3.2h7.8a4.55,4.55,0,0,0-1-3.2,3.25,3.25,0,0,0-2.8-1.1Z" style="fill:#404242"/><path d="M421.4,542.9h-3.7V532.3a4.55,4.55,0,0,0-.8-3,3,3,0,0,0-2.5-1,4,4,0,0,0-3.4,1.4,7.76,7.76,0,0,0-1.1,4.6v8.6h-3.7V525.6h2.9l.5,2.3h.2A5.1,5.1,0,0,1,412,526a7.11,7.11,0,0,1,3.2-.7c4.2,0,6.2,2.1,6.2,6.3Z" style="fill:#404242"/><path d="M437.3,542.9l-.7-2.4h-.1a8.81,8.81,0,0,1-2.5,2.2,8.66,8.66,0,0,1-3.2.6,5.33,5.33,0,0,1-4-1.4,5.11,5.11,0,0,1-1.4-3.9,4.55,4.55,0,0,1,2-4,11.4,11.4,0,0,1,6-1.5l3-.1v-.9a3.29,3.29,0,0,0-.8-2.5,3,3,0,0,0-2.4-.8,6.9,6.9,0,0,0-2.5.4c-.8.3-1.6.6-2.3.9l-1.2-2.7a10.83,10.83,0,0,1,3-1.1,11,11,0,0,1,3.1-.4,7.92,7.92,0,0,1,5,1.4,5.8,5.8,0,0,1,1.7,4.5v11.6Zm-5.4-2.5a4.2,4.2,0,0,0,3.2-1.1,4.06,4.06,0,0,0,1.2-3.1v-1.5l-2.2.1a8.49,8.49,0,0,0-3.8.9,2.73,2.73,0,0,0-1.2,2.4,2.41,2.41,0,0,0,.7,1.8A3,3,0,0,0,431.9,540.4Z" style="fill:#404242"/><path d="M460.3,542.9h-3.7V532.3a4.55,4.55,0,0,0-.8-3,3.19,3.19,0,0,0-2.6-1,4,4,0,0,0-3.4,1.4,7.76,7.76,0,0,0-1.1,4.6v8.6h-3.6V525.6H448l.5,2.3h.2a5.1,5.1,0,0,1,2.2-1.9,7.11,7.11,0,0,1,3.2-.7c4.2,0,6.2,2.1,6.2,6.3Z" style="fill:#404242"/><path d="M471.8,540.2a8.42,8.42,0,0,0,2.7-.4v2.8a7.49,7.49,0,0,1-1.6.5,13.55,13.55,0,0,1-2,.2c-3.5,0-5.2-1.8-5.2-5.5v-9.3h-2.4v-1.6l2.5-1.3,1.2-3.7h2.3v3.8h4.9v2.8h-4.9v9.2a2.15,2.15,0,0,0,2.5,2.5Z" style="fill:#404242"/><path d="M1024.8,542.9l-6.6-19.1h-.1c.2,2.8.3,5.5.3,8v11.1h-3.3V520h5.3l6.3,18.2h.1l6.5-18.2h5.3v22.8H1035V531.5c0-1.1,0-2.6.1-4.4s.1-2.9.2-3.3h-.2l-6.9,19Z" style="fill:#404242"/><path d="M1056.3,542.9l-.5-2.3h-.2a5.1,5.1,0,0,1-2.2,1.9,7.11,7.11,0,0,1-3.2.7,6.3,6.3,0,0,1-4.7-1.6,6.73,6.73,0,0,1-1.6-4.7V525.6h3.7v10.7a4.55,4.55,0,0,0,.8,3,3.07,3.07,0,0,0,2.6,1,4,4,0,0,0,3.4-1.4,7.76,7.76,0,0,0,1.1-4.6v-8.6h3.7V543Z" style="fill:#404242"/><path d="M1068.1,542.9h-3.7V518.6h3.7Z" style="fill:#404242"/><path d="M1079.8,540.2a8.42,8.42,0,0,0,2.7-.4v2.8a7.49,7.49,0,0,1-1.6.5,13.55,13.55,0,0,1-2,.2c-3.5,0-5.2-1.8-5.2-5.5v-9.3h-2.4v-1.6l2.5-1.3,1.2-3.7h2.3v3.8h4.9v2.8h-4.9v9.2a2.49,2.49,0,0,0,.7,2A2.27,2.27,0,0,0,1079.8,540.2Z" style="fill:#404242"/><path d="M1085.7,521a2.46,2.46,0,0,1,.5-1.5,1.74,1.74,0,0,1,1.5-.5,2.46,2.46,0,0,1,1.5.5,1.74,1.74,0,0,1,.5,1.5,2.69,2.69,0,0,1-.5,1.5,1.74,1.74,0,0,1-1.5.5,2.46,2.46,0,0,1-1.5-.5A2,2,0,0,1,1085.7,521Zm3.9,21.9h-3.7V525.6h3.7Z" style="fill:#404242"/><path d="M1101.3,540.2a8.42,8.42,0,0,0,2.7-.4v2.8a7.49,7.49,0,0,1-1.6.5,13.55,13.55,0,0,1-2,.2c-3.5,0-5.2-1.8-5.2-5.5v-9.3h-2.4v-1.6l2.5-1.3,1.2-3.7h2.3v3.8h4.9v2.8h-4.9v9.2a2.49,2.49,0,0,0,.7,2A2.27,2.27,0,0,0,1101.3,540.2Z" style="fill:#404242"/><path d="M1115,543.2a8.66,8.66,0,0,1-6.3-2.3,9.13,9.13,0,0,1-2.3-6.5,10.12,10.12,0,0,1,2.1-6.7,7.49,7.49,0,0,1,5.8-2.4,7.23,7.23,0,0,1,5.4,2.1,8,8,0,0,1,2,5.7v2h-11.5a5.68,5.68,0,0,0,1.4,3.9,4.88,4.88,0,0,0,3.6,1.3,12.28,12.28,0,0,0,5.6-1.3v3a14.26,14.26,0,0,1-2.7.9A16.28,16.28,0,0,1,1115,543.2Zm-.7-15.1a3.93,3.93,0,0,0-2.8,1.1,4.72,4.72,0,0,0-1.2,3.2h7.8a4.55,4.55,0,0,0-1-3.2,3.36,3.36,0,0,0-2.8-1.1Z" style="fill:#404242"/><path d="M1141,542.9h-3.7V532.3a4.55,4.55,0,0,0-.8-3,3.07,3.07,0,0,0-2.6-1,4,4,0,0,0-3.4,1.4,7.76,7.76,0,0,0-1.1,4.6v8.6h-3.7V525.6h2.9l.5,2.3h.2a5.1,5.1,0,0,1,2.2-1.9,7.11,7.11,0,0,1,3.2-.7c4.1,0,6.2,2.1,6.2,6.3Z" style="fill:#404242"/><path d="M1157,542.9l-.7-2.4h-.1a8.81,8.81,0,0,1-2.5,2.2,8.66,8.66,0,0,1-3.2.6,5.33,5.33,0,0,1-4-1.4,5.11,5.11,0,0,1-1.4-3.9,4.55,4.55,0,0,1,2-4,12.42,12.42,0,0,1,6-1.5l3-.1v-.9a3.29,3.29,0,0,0-.8-2.5,3,3,0,0,0-2.4-.8,7.83,7.83,0,0,0-2.6.4c-.8.3-1.6.6-2.3.9l-1.2-2.6a11.47,11.47,0,0,1,3.1-1.1,11.24,11.24,0,0,1,3.2-.4,7.92,7.92,0,0,1,5,1.4,5.8,5.8,0,0,1,1.7,4.5v11.6Zm-5.5-2.5a4.2,4.2,0,0,0,3.2-1.1,4.06,4.06,0,0,0,1.2-3.1v-1.5l-2.2.1a8.49,8.49,0,0,0-3.8.9,2.73,2.73,0,0,0-1.2,2.4,2.41,2.41,0,0,0,.7,1.8,3.84,3.84,0,0,0,2.1.5Z" style="fill:#404242"/><path d="M1179.9,542.9h-3.7V532.3a4.55,4.55,0,0,0-.8-3,3.19,3.19,0,0,0-2.6-1,4,4,0,0,0-3.4,1.4,7.76,7.76,0,0,0-1.1,4.6v8.6h-3.7V525.6h2.9l.5,2.3h.2a5.1,5.1,0,0,1,2.2-1.9,7.11,7.11,0,0,1,3.2-.7c4.1,0,6.2,2.1,6.2,6.3Z" style="fill:#404242"/><path d="M1191.5,540.2a8.42,8.42,0,0,0,2.7-.4v2.8a7.49,7.49,0,0,1-1.6.5,13.55,13.55,0,0,1-2,.2c-3.5,0-5.2-1.8-5.2-5.5v-9.3H1183v-1.6l2.5-1.3,1.2-3.7h2.3v3.8h4.9v2.8H1189v9.2a2.49,2.49,0,0,0,.7,2A2.27,2.27,0,0,0,1191.5,540.2Z" style="fill:#404242"/></svg>